<svg xmlns="http://www.w3.org/2000/svg" viewBox="0 0 24 24" fill="white">
  <path d="M12 8a4 4 0 100 8 4 4 0 000-8zm0 6a2 2 0 110-4 2 2 0 010 4z"/>
  <path d="M21.32 9.55l-1.89-.63a7.5 7.5 0 00-.78-1.88l.78-1.81a.5.5 0 00-.1-.55l-1.41-1.41a.5.5 0 00-.55-.1l-1.81.78a7.5 7.5 0 00-1.88-.78L14.05 1.28a.5.5 0 00-.48-.38h-2a.5.5 0 00-.48.38l-.63 1.89a7.5 7.5 0 00-1.88.78l-1.81-.78a.5.5 0 00-.55.1L4.81 4.68a.5.5 0 00-.1.55l.78 1.81a7.5 7.5 0 00-.78 1.88l-1.89.63a.5.5 0 00-.38.48v2a.5.5 0 00.38.48l1.89.63c.18.66.44 1.29.78 1.88l-.78 1.81a.5.5 0 00.1.55l1.41 1.41a.5.5 0 00.55.1l1.81-.78c.59.34 1.22.6 1.88.78l.63 1.89a.5.5 0 00.48.38h2a.5.5 0 00.48-.38l.63-1.89a7.5 7.5 0 001.88-.78l1.81.78a.5.5 0 00.55-.1l1.41-1.41a.5.5 0 00.1-.55l-.78-1.81c.34-.59.6-1.22.78-1.88l1.89-.63a.5.5 0 00.38-.48v-2a.5.5 0 00-.38-.48z"/>
</svg>
